<svg width="50" height="50" viewBox="0 0 50 50" fill="none" xmlns="http://www.w3.org/2000/svg">
<g clip-path="url(#clip0_2_280)">
<path d="M42.3687 7.88877H32.9012V3.70811C32.9012 3.20977 33.3052 2.80586 33.8034 2.80586H41.4664C41.9648 2.80586 42.3687 3.20987 42.3687 3.70811V7.88877Z" fill="#FFD064"/>
<path d="M41.4664 2.80586H39.4047C39.903 2.80586 40.3069 3.20977 40.3069 3.70811V7.88877H42.3686V3.70811C42.3686 3.20977 41.9646 2.80586 41.4664 2.80586Z" fill="#FFC250"/>
<path d="M37.6349 28.9099C44.0595 28.9099 49.2676 23.7017 49.2676 17.2772C49.2676 10.8526 44.0595 5.64444 37.6349 5.64444C31.2103 5.64444 26.0022 10.8526 26.0022 17.2772C26.0022 23.7017 31.2103 28.9099 37.6349 28.9099Z" fill="#F9F6F6"/>
<path d="M37.6349 5.64444C37.2207 5.64444 36.8117 5.66651 36.4087 5.7087C42.2568 6.32139 46.8152 11.2667 46.8152 17.2772C46.8152 23.2875 42.2568 28.2329 36.4087 28.8456C36.8117 28.8878 37.2207 28.9099 37.6349 28.9099C44.0595 28.9099 49.2676 23.7018 49.2676 17.2772C49.2676 10.8525 44.0595 5.64444 37.6349 5.64444Z" fill="#DDDAEC"/>
<path d="M47.9624 42.0213H6.75186C6.38624 42.0213 6.08975 41.7249 6.08975 41.3592V22.7094C6.08975 22.1285 6.56065 21.6577 7.14141 21.6577H37.3323C37.8628 21.6577 38.3689 21.8808 38.7267 22.2724L48.7747 33.2677C49.0917 33.6146 49.2675 34.0676 49.2675 34.5375V40.7161C49.2676 41.4369 48.6832 42.0213 47.9624 42.0213Z" fill="#80B4FB"/>
<path d="M48.7747 33.2677L38.7266 22.2724C38.3688 21.8808 37.8628 21.6577 37.3323 21.6577H35.1825C35.713 21.6577 36.219 21.8808 36.5768 22.2724L46.6249 33.2677C46.9419 33.6146 47.1176 34.0676 47.1176 34.5375V40.7161C47.1176 41.4369 46.5333 42.0213 45.8125 42.0213H47.9623C48.6831 42.0213 49.2675 41.4369 49.2675 40.7161V34.5375C49.2675 34.0675 49.0918 33.6146 48.7747 33.2677Z" fill="#61A2F9"/>
<path d="M38.7266 22.2724C38.3688 21.8808 37.8628 21.6577 37.3323 21.6577H33.2793V31.0979C33.2793 31.5074 33.6113 31.8395 34.0209 31.8395H47.4695L38.7266 22.2724Z" fill="#E4F6FF"/>
<path d="M36.5768 22.2724L45.3198 31.8396H47.4696L38.7266 22.2724C38.3688 21.8808 37.8628 21.6577 37.3323 21.6577H35.1825C35.713 21.6577 36.219 21.8808 36.5768 22.2724Z" fill="#D3EFFB"/>
<path d="M40.8471 47.1941C43.5506 47.1941 45.7422 45.0026 45.7422 42.2991C45.7422 39.5957 43.5506 37.4041 40.8471 37.4041C38.1437 37.4041 35.9521 39.5957 35.9521 42.2991C35.9521 45.0026 38.1437 47.1941 40.8471 47.1941Z" fill="#26457D"/>
<path d="M40.8472 37.4041C40.5699 37.4041 40.2985 37.4283 40.0339 37.4727C42.35 37.8602 44.1156 39.873 44.1156 42.2991C44.1156 44.7254 42.3501 46.7381 40.0339 47.1256C40.2985 47.1698 40.5699 47.1941 40.8472 47.1941C43.5506 47.1941 45.7422 45.0025 45.7422 42.2991C45.7422 39.5957 43.5506 37.4041 40.8472 37.4041Z" fill="#21386B"/>
<path d="M40.8471 43.9257C41.7455 43.9257 42.4737 43.1975 42.4737 42.2991C42.4737 41.4008 41.7455 40.6726 40.8471 40.6726C39.9488 40.6726 39.2206 41.4008 39.2206 42.2991C39.2206 43.1975 39.9488 43.9257 40.8471 43.9257Z" fill="#F9F6F6"/>
<path d="M40.8472 40.6726C40.6104 40.6726 40.386 40.7243 40.183 40.8153C40.75 41.0695 41.1455 41.6377 41.1455 42.2992C41.1455 42.9607 40.7499 43.5289 40.183 43.7831C40.3859 43.8741 40.6104 43.9259 40.8472 43.9259C41.7455 43.9259 42.4737 43.1977 42.4737 42.2992C42.4737 41.4008 41.7455 40.6726 40.8472 40.6726Z" fill="#DDDAEC"/>
<path d="M16.4629 47.1941C19.1663 47.1941 21.3579 45.0026 21.3579 42.2991C21.3579 39.5957 19.1663 37.4041 16.4629 37.4041C13.7594 37.4041 11.5679 39.5957 11.5679 42.2991C11.5679 45.0026 13.7594 47.1941 16.4629 47.1941Z" fill="#26457D"/>
<path d="M16.463 37.4041C16.1858 37.4041 15.9144 37.4283 15.6497 37.4727C17.9658 37.8602 19.7315 39.873 19.7315 42.2991C19.7315 44.7254 17.9659 46.7381 15.6497 47.1256C15.9144 47.1698 16.1858 47.1941 16.463 47.1941C19.1664 47.1941 21.358 45.0025 21.358 42.2991C21.358 39.5957 19.1664 37.4041 16.463 37.4041Z" fill="#21386B"/>
<path d="M16.4629 43.9257C17.3612 43.9257 18.0894 43.1975 18.0894 42.2991C18.0894 41.4008 17.3612 40.6726 16.4629 40.6726C15.5645 40.6726 14.8363 41.4008 14.8363 42.2991C14.8363 43.1975 15.5645 43.9257 16.4629 43.9257Z" fill="#F9F6F6"/>
<path d="M16.463 40.6726C16.2262 40.6726 16.0019 40.7243 15.7988 40.8153C16.3658 41.0695 16.7613 41.6377 16.7613 42.2992C16.7613 42.9607 16.3657 43.5289 15.7988 43.7831C16.0018 43.8741 16.2262 43.9259 16.463 43.9259C17.3613 43.9259 18.0896 43.1977 18.0896 42.2992C18.0896 41.4008 17.3613 40.6726 16.463 40.6726Z" fill="#DDDAEC"/>
<path d="M14.969 33.4736L14.3988 32.8879L17.8726 29.5067L14.3988 26.1255L14.969 25.5398C15.7574 24.7297 17.0532 24.7122 17.8633 25.5007L20.9076 28.4639C21.0654 28.6175 21.194 28.8012 21.2693 29.0081C21.4695 29.558 21.3203 30.1481 20.9247 30.533L17.8633 33.5128C17.0533 34.3012 15.7574 34.2837 14.969 33.4736Z" fill="#F9F6F6"/>
<path d="M37.6349 10.041C38.0395 10.041 38.3673 9.71319 38.3673 9.3086V8.32403C38.3673 7.91944 38.0395 7.59161 37.6349 7.59161C37.2303 7.59161 36.9025 7.91944 36.9025 8.32403V9.3086C36.9025 9.71309 37.2304 10.041 37.6349 10.041Z" fill="black"/>
<path d="M45.6035 16.5447C45.199 16.5447 44.8711 16.8726 44.8711 17.2772C44.8711 17.6817 45.199 18.0096 45.6035 18.0096H46.588C46.9926 18.0096 47.3204 17.6817 47.3204 17.2772C47.3204 16.8726 46.9926 16.5447 46.588 16.5447H45.6035Z" fill="black"/>
<path d="M28.6817 16.5447C28.2771 16.5447 27.9493 16.8726 27.9493 17.2772C27.9493 17.6817 28.2771 18.0096 28.6817 18.0096H29.6663C30.0709 18.0096 30.3987 17.6817 30.3987 17.2772C30.3987 16.8726 30.0709 16.5447 29.6663 16.5447H28.6817Z" fill="black"/>
<path d="M40.8471 39.9401C39.5464 39.9401 38.4881 40.9984 38.4881 42.2991C38.4881 43.5998 39.5464 44.6581 40.8471 44.6581C42.1478 44.6581 43.2061 43.5998 43.2061 42.2991C43.2061 40.9984 42.1478 39.9401 40.8471 39.9401ZM40.8471 43.1933C40.354 43.1933 39.9529 42.7922 39.9529 42.2991C39.9529 41.8061 40.354 41.405 40.8471 41.405C41.3402 41.405 41.7413 41.8061 41.7413 42.2991C41.7413 42.7922 41.3402 43.1933 40.8471 43.1933Z" fill="black"/>
<path d="M14.1039 42.2991C14.1039 43.5998 15.1622 44.6581 16.463 44.6581C17.7637 44.6581 18.8219 43.5998 18.8219 42.2991C18.8219 40.9984 17.7637 39.9401 16.463 39.9401C15.1622 39.9401 14.1039 40.9983 14.1039 42.2991ZM17.3571 42.2991C17.3571 42.7922 16.956 43.1933 16.463 43.1933C15.9699 43.1933 15.5687 42.7922 15.5687 42.2991C15.5687 41.8061 15.9699 41.405 16.463 41.405C16.956 41.405 17.3571 41.8061 17.3571 42.2991Z" fill="black"/>
<path d="M21.4356 31.0577C22.2625 30.2529 22.3578 28.853 21.4185 27.939L18.3742 24.9756C17.2759 23.907 15.513 23.9307 14.4441 25.0287L13.874 25.6145C13.5919 25.9044 13.5981 26.3681 13.888 26.6501L16.8225 29.5065L13.888 32.3629C13.7488 32.4983 13.6691 32.6836 13.6665 32.8777C13.6638 33.072 13.7386 33.2593 13.874 33.3985L14.4441 33.9843C15.5165 35.0859 17.2757 35.1068 18.3742 34.0373L21.4356 31.0577ZM15.4938 32.9627L15.4345 32.9019L18.3835 30.0314C18.5251 29.8937 18.605 29.7043 18.605 29.5066C18.605 29.309 18.5252 29.1196 18.3835 28.9818L15.4345 26.1113L15.4938 26.0505C15.9995 25.5311 16.8332 25.5198 17.3525 26.0253L20.3968 28.9887C20.7217 29.3049 20.6783 29.7506 20.4139 30.008L17.3525 32.9878C16.8356 33.4908 16.0036 33.4864 15.4938 32.9627Z" fill="black"/>
<path d="M36.9025 17.2771C36.9025 17.6817 37.2303 18.0096 37.6349 18.0096H40.1257C40.5303 18.0096 40.8581 17.6817 40.8581 17.2771C40.8581 16.8726 40.5303 16.5447 40.1257 16.5447H38.3673V11.9836C38.3673 11.579 38.0395 11.2512 37.6349 11.2512C37.2303 11.2512 36.9025 11.579 36.9025 11.9836V17.2771Z" fill="black"/>
<path d="M12.5118 11.0176H25.1232C25.5278 11.0176 25.8557 10.6897 25.8557 10.2852C25.8557 9.88057 25.5278 9.55274 25.1232 9.55274H12.5118C12.1073 9.55274 11.7794 9.88057 11.7794 10.2852C11.7794 10.6897 12.1073 11.0176 12.5118 11.0176Z" fill="black"/>
<path d="M9.45477 14.8015H22.5458C22.9503 14.8015 23.2782 14.4736 23.2782 14.0691C23.2782 13.6645 22.9503 13.3366 22.5458 13.3366H9.45477C9.05028 13.3366 8.72235 13.6645 8.72235 14.0691C8.72235 14.4736 9.05028 14.8015 9.45477 14.8015Z" fill="black"/>
<path d="M16.9442 16.711C16.5397 16.711 16.2117 17.0389 16.2117 17.4435C16.2117 17.8481 16.5397 18.1759 16.9442 18.1759H23.4583C23.8628 18.1759 24.1907 17.8481 24.1907 17.4435C24.1907 17.0389 23.8628 16.711 23.4583 16.711H16.9442Z" fill="black"/>
<path d="M10.769 16.711C10.3646 16.711 10.0366 17.0389 10.0366 17.4435C10.0366 17.8481 10.3646 18.1759 10.769 18.1759H14.0202C14.4247 18.1759 14.7526 17.8481 14.7526 17.4435C14.7526 17.0389 14.4247 16.711 14.0202 16.711H10.769Z" fill="black"/>
<path d="M0.732422 28.2623H3.41113C3.81562 28.2623 4.14355 27.9345 4.14355 27.5299C4.14355 27.1253 3.81562 26.7975 3.41113 26.7975H0.732422C0.32793 26.7975 0 27.1253 0 27.5299C0 27.9345 0.32793 28.2623 0.732422 28.2623Z" fill="black"/>
<path d="M2.68555 34.7139H0.732422C0.32793 34.7139 0 35.0417 0 35.4463C0 35.8509 0.32793 36.1787 0.732422 36.1787H2.68555C3.09004 36.1787 3.41797 35.8509 3.41797 35.4463C3.41797 35.0417 3.09004 34.7139 2.68555 34.7139Z" fill="black"/>
<path d="M11.3021 28.5116H8.68994C8.28545 28.5116 7.95752 28.8395 7.95752 29.244C7.95752 29.6486 8.28545 29.9765 8.68994 29.9765H11.3021C11.7065 29.9765 12.0345 29.6486 12.0345 29.244C12.0345 28.8395 11.7065 28.5116 11.3021 28.5116Z" fill="black"/>
<path d="M44.5321 27.5395C47.9257 25.2532 50 21.4005 50 17.2771C50 15.3173 49.5542 13.442 48.6748 11.7036C48.4923 11.3427 48.0516 11.1981 47.6907 11.3806C47.3298 11.5631 47.1851 12.0038 47.3677 12.3647C48.1423 13.8963 48.5352 15.5491 48.5352 17.2771C48.5352 20.9855 46.6314 24.4453 43.5314 26.4443L39.2673 21.7782C38.772 21.236 38.0666 20.9252 37.3323 20.9252H27.361C26.9454 19.7564 26.7346 18.5315 26.7346 17.2771C26.7346 11.2666 31.6244 6.37686 37.6349 6.37686C40.7526 6.37686 43.7277 7.71709 45.7973 10.0539C46.0652 10.3566 46.5281 10.385 46.8312 10.1166C47.134 9.84844 47.1621 9.38555 46.8938 9.08272C45.8179 7.86768 44.5255 6.89112 43.1011 6.18868V3.70811C43.1011 2.80674 42.3678 2.07344 41.4664 2.07344H33.8034C32.9021 2.07344 32.1688 2.80674 32.1688 3.70811V6.18799C28.0849 8.20928 25.2697 12.4202 25.2697 17.2771C25.2697 18.5255 25.4545 19.7481 25.8183 20.9252H7.14141C6.20713 20.9252 5.43965 21.6475 5.36475 22.5629H2.68555C2.28105 22.5629 1.95312 22.8907 1.95312 23.2953C1.95312 23.6999 2.28105 24.0277 2.68555 24.0277H5.35732V31.107H0.732422C0.32793 31.107 0 31.4349 0 31.8395C0 32.244 0.32793 32.5719 0.732422 32.5719H5.35732V34.7142C4.95605 34.7179 4.63174 35.044 4.63174 35.4462C4.63174 35.8483 4.95596 36.1745 5.35732 36.1782V41.3591C5.35732 42.128 5.98291 42.7535 6.75176 42.7535H8.72236V43.2634H6.43721C6.03271 43.2634 5.70479 43.5912 5.70479 43.9958C5.70479 44.4004 6.03271 44.7282 6.43721 44.7282H9.45479C9.85928 44.7282 10.1872 44.4004 10.1872 43.9958V42.7535H10.8555C11.0879 45.6445 13.5132 47.9264 16.463 47.9264C17.4364 47.9264 18.3974 47.6724 19.2418 47.1919C19.5934 46.9918 19.7161 46.5446 19.5161 46.1931C19.3161 45.8414 18.869 45.7189 18.5173 45.9187C17.8933 46.2738 17.1828 46.4615 16.463 46.4615C14.1678 46.4615 12.3004 44.5942 12.3004 42.2989C12.3004 40.0036 14.1678 38.1363 16.463 38.1363C18.7582 38.1363 20.6256 40.0036 20.6256 42.2989C20.6256 42.9247 20.4899 43.5266 20.2224 44.0878C20.0482 44.4529 20.2032 44.89 20.5683 45.0641C20.9335 45.2381 21.3705 45.0832 21.5446 44.7182C21.8414 44.0957 22.0161 43.4364 22.0703 42.7535H35.2396C35.4721 45.6445 37.8974 47.9264 40.8472 47.9264C43.797 47.9264 46.2222 45.6445 46.4547 42.7535H47.9624C49.0859 42.7535 50 41.8395 50 40.7159V34.5372C50 33.8828 49.7569 33.2564 49.3154 32.7733L44.5321 27.5395ZM33.6336 3.70811C33.6336 3.61446 33.7098 3.53829 33.8034 3.53829H41.4664C41.5601 3.53829 41.6362 3.61446 41.6362 3.70811V5.57979C40.3607 5.14297 39.0103 4.91211 37.6349 4.91211C36.2352 4.91211 34.8892 5.14629 33.6335 5.57686V3.70811H33.6336ZM38.186 22.7665L45.8081 31.107H40.3445C39.9399 31.107 39.6121 31.4349 39.6121 31.8395C39.6121 32.244 39.9399 32.5719 40.3445 32.5719H47.1468L48.2342 33.7618C48.6775 34.247 48.4912 34.7734 48.5352 35.3321H47.9705C47.5659 35.3321 47.2381 35.66 47.2381 36.0646C47.2381 36.4691 47.5659 36.797 47.9705 36.797H48.5352V37.8808H44.3261C43.3679 37.1246 42.1598 36.6717 40.8473 36.6717C39.5348 36.6717 38.3267 37.1246 37.3685 37.8808H29.3883V22.3901H32.5472V31.0979C32.5472 31.9106 33.2084 32.572 34.0212 32.572H37.4164C37.821 32.572 38.1488 32.2441 38.1488 31.8396C38.1488 31.435 37.821 31.1071 37.4164 31.1071H34.0212C34.0161 31.1071 34.012 31.1029 34.012 31.0979V22.3901H37.3325C37.6562 22.3901 37.9675 22.5273 38.186 22.7665ZM35.3123 41.2889H29.3881V39.3456H36.0598C35.6973 39.931 35.44 40.5875 35.3123 41.2889ZM21.2503 39.3456H27.9232V41.2889H21.9978C21.87 40.5875 21.6128 39.931 21.2503 39.3456ZM6.82217 39.3456H11.6755C11.313 39.931 11.0558 40.5875 10.928 41.2889H6.82217V39.3456ZM12.9841 37.8808H6.82217V36.1787H9.996C10.4005 36.1787 10.7284 35.8509 10.7284 35.4463C10.7284 35.0417 10.4005 34.7139 9.996 34.7139H6.82217V32.5719H9.996C10.4005 32.5719 10.7284 32.244 10.7284 31.8395C10.7284 31.4349 10.4005 31.107 9.996 31.107H6.82217V22.7094C6.82217 22.5333 6.96533 22.39 7.14141 22.39H27.9232V37.8807H19.9418C18.9836 37.1245 17.7755 36.6716 16.463 36.6716C15.1505 36.6716 13.9424 37.1246 12.9841 37.8808ZM40.8472 46.4617C38.5519 46.4617 36.6846 44.5944 36.6846 42.2991C36.6846 40.0038 38.5519 38.1365 40.8472 38.1365C43.1425 38.1365 45.0098 40.0038 45.0098 42.2991C45.0098 44.5944 43.1425 46.4617 40.8472 46.4617ZM47.9623 41.2889H46.3819C46.2542 40.5875 45.997 39.931 45.6345 39.3456H48.5352V40.7161C48.5352 41.0319 48.2782 41.2889 47.9623 41.2889Z" fill="black"/>
</g>
<defs>
<clipPath id="clip0_2_280">
<rect width="50" height="50" fill="white"/>
</clipPath>
</defs>
</svg>
