<svg width="50" height="50" viewBox="0 0 50 50" fill="none" xmlns="http://www.w3.org/2000/svg">
<g clip-path="url(#clip0_2_343)">
<path d="M9.37543 8.79221H46.4609V41.6638H9.37543V8.79221Z" fill="#5DE1C4"/>
<path d="M43.4924 8.79221H46.4609V41.6638H43.4924V8.79221Z" fill="#0AB69F"/>
<path d="M5.05883 4.47552C2.67472 4.47552 0.742126 6.40821 0.742126 8.79221V41.2079H9.37543V8.79221C9.37543 6.40821 7.44273 4.47552 5.05883 4.47552Z" fill="#0AB69F"/>
<path d="M5.05883 4.47552C4.53726 4.47552 4.03737 4.56803 3.57458 4.73744C5.22744 5.34262 6.40693 6.92968 6.40693 8.79212V41.2078H9.37543V8.79221C9.37543 6.40821 7.44274 4.47552 5.05883 4.47552Z" fill="#008B81"/>
<path d="M9.37543 14.0882H39.7904V36.3679H9.37543V14.0882Z" fill="#FB7079"/>
<path d="M36.8219 14.0882H39.7904V36.3679H36.8219V14.0882Z" fill="#EA5C6B"/>
<path d="M6.72576 45.1998C8.92857 44.2867 9.97411 41.7608 9.06104 39.558C8.14798 37.3552 5.62206 36.3096 3.41925 37.2227C1.21644 38.1358 0.170898 40.6617 1.08397 42.8645C1.99704 45.0673 4.52296 46.1128 6.72576 45.1998Z" fill="#0AB69F"/>
<path d="M5.53926 42.3372C6.16111 42.0795 6.45624 41.3664 6.19847 40.7445C5.94069 40.1226 5.22761 39.8274 4.60576 40.0852C3.98391 40.3429 3.68877 41.056 3.94655 41.6779C4.20433 42.2998 4.91741 42.595 5.53926 42.3372Z" fill="#037E73"/>
<path d="M23.642 32.5909L17.22 26.1688C16.7004 25.6493 16.7004 24.8068 17.22 24.2872L23.642 17.8652C24.1616 17.3456 25.0041 17.3456 25.5238 17.8652L31.9459 24.2872C32.4654 24.8068 32.4654 25.6493 31.9459 26.1688L25.5238 32.5909C25.0041 33.1105 24.1616 33.1105 23.642 32.5909Z" fill="#F4DAA7"/>
<path d="M31.9458 24.2872L25.5238 17.8652C25.0042 17.3456 24.1617 17.3456 23.6421 17.8652L23.0987 18.4086L28.9773 24.2872C29.4969 24.8068 29.4969 25.6493 28.9773 26.1688L23.0987 32.0475L23.6421 32.5909C24.1617 33.1105 25.0042 33.1105 25.5238 32.5909L31.9458 26.1688C32.4654 25.6493 32.4654 24.8068 31.9458 24.2872Z" fill="#F1CD88"/>
<path d="M23.1173 33.1156C23.5213 33.5197 24.0521 33.7217 24.583 33.7217C25.1137 33.7217 25.6445 33.5197 26.0485 33.1156L32.4706 26.6936C33.2786 25.8854 33.2786 24.5705 32.4705 23.7624L26.0484 17.3403C25.2403 16.5324 23.9253 16.5322 23.1172 17.3404L16.6952 23.7625C15.8871 24.5706 15.8871 25.8855 16.6952 26.6937L23.1173 33.1156ZM17.7448 24.8119L24.1669 18.39C24.3963 18.1605 24.7697 18.1605 24.9991 18.3899L31.421 24.8119C31.6505 25.0414 31.6505 25.4146 31.4211 25.6441L24.9991 32.0661C24.7697 32.2955 24.3963 32.2955 24.1669 32.0661L17.7449 25.644C17.5154 25.4146 17.5154 25.0414 17.7448 24.8119Z" fill="black"/>
<path d="M21.0474 40.9217H10.1176V37.11H39.7904C40.2003 37.11 40.5326 36.7777 40.5326 36.3678V14.0881C40.5326 13.6783 40.2003 13.346 39.7904 13.346H10.1176V9.53434H16.1478C16.5576 9.53434 16.8899 9.20207 16.8899 8.79222C16.8899 8.38236 16.5576 8.05009 16.1478 8.05009H10.0626C9.70247 5.61127 7.59611 3.73339 5.05883 3.73339C2.26943 3.73339 7.62939e-06 6.00281 7.62939e-06 8.79222V41.2079C7.62939e-06 43.9973 2.26943 46.2666 5.05883 46.2666C7.43542 46.2666 9.43342 44.6188 9.97299 42.406H21.0474C21.4572 42.406 21.7895 42.0737 21.7895 41.6639C21.7895 41.254 21.4572 40.9217 21.0474 40.9217ZM35.4258 35.6257C35.4898 33.5501 37.0411 31.8427 39.0482 31.5381V35.6257H35.4258ZM39.0483 18.4076C37.2083 18.1284 35.7503 16.6703 35.4711 14.8303H39.0483V18.4076ZM33.9751 14.8303C34.2725 17.4895 36.389 19.6062 39.0483 19.9034V30.0421C36.221 30.3581 34.0078 32.7309 33.9417 35.6256H10.1176V14.8303H33.9751ZM5.05883 5.21764C7.02982 5.21764 8.63341 6.82123 8.63341 8.79222V37.6316C7.71743 36.7161 6.45314 36.1492 5.05883 36.1492C3.66453 36.1492 2.40024 36.716 1.48426 37.6316V8.79222C1.48426 6.82123 3.08785 5.21764 5.05883 5.21764ZM5.05883 44.7824C3.08785 44.7824 1.48426 43.1789 1.48426 41.2079C1.48426 39.2369 3.08785 37.6334 5.05883 37.6334C7.02982 37.6334 8.63341 39.237 8.63341 41.2079C8.63331 43.1789 7.02982 44.7824 5.05883 44.7824Z" fill="black"/>
<path d="M49.2579 13.5633C49.6678 13.5633 50 13.231 50 12.8212C50 12.4113 49.6678 12.079 49.2579 12.079H47.2029V10.5186H49.2579C49.6678 10.5186 50 10.1863 50 9.77647C50 9.36662 49.6678 9.03434 49.2579 9.03434H47.2029V8.79221C47.2029 8.38236 46.8706 8.05009 46.4608 8.05009H19.1163C18.7064 8.05009 18.3741 8.38236 18.3741 8.79221C18.3741 9.20206 18.7064 9.53434 19.1163 9.53434H45.7186V40.9217H24.0159C23.606 40.9217 23.2738 41.254 23.2738 41.6638C23.2738 42.0737 23.606 42.406 24.0159 42.406H46.4609C46.8707 42.406 47.203 42.0737 47.203 41.6638V40.9656H49.258C49.6678 40.9656 50.0001 40.6334 50.0001 40.2235C50.0001 39.8137 49.6678 39.4814 49.258 39.4814H47.203V37.9209H49.258C49.6678 37.9209 50.0001 37.5887 50.0001 37.1788C50.0001 36.769 49.6678 36.4367 49.258 36.4367H47.203V34.8763H49.258C49.6678 34.8763 50.0001 34.544 50.0001 34.1341C50.0001 33.7243 49.6678 33.392 49.258 33.392H47.203V31.8316H49.258C49.6678 31.8316 50.0001 31.4993 50.0001 31.0894C50.0001 30.6796 49.6678 30.3473 49.258 30.3473H47.203V28.7869H49.258C49.6678 28.7869 50.0001 28.4546 50.0001 28.0447C50.0001 27.6349 49.6678 27.3026 49.258 27.3026H47.203V25.7422H49.258C49.6678 25.7422 50.0001 25.4099 50.0001 25C50.0001 24.5902 49.6678 24.2579 49.258 24.2579H47.203V22.6975H49.258C49.6678 22.6975 50.0001 22.3652 50.0001 21.9553C50.0001 21.5455 49.6678 21.2132 49.258 21.2132H47.203V19.6528H49.258C49.6678 19.6528 50.0001 19.3205 50.0001 18.9107C50.0001 18.5008 49.6678 18.1685 49.258 18.1685H47.203V16.6081H49.258C49.6678 16.6081 50.0001 16.2758 50.0001 15.866C50.0001 15.4561 49.6678 15.1238 49.258 15.1238H47.203V13.5634H49.2579V13.5633Z" fill="black"/>
<path d="M5.05884 39.2471C3.97771 39.2471 3.09814 40.1266 3.09814 41.2079C3.09814 42.289 3.97771 43.1686 5.05884 43.1686C6.13997 43.1686 7.01953 42.289 7.01953 41.2079C7.01953 40.1266 6.13997 39.2471 5.05884 39.2471ZM5.05884 41.6843C4.79612 41.6843 4.58239 41.4706 4.58239 41.2079C4.58239 40.9452 4.79612 40.7313 5.05884 40.7313C5.32155 40.7313 5.53528 40.9452 5.53528 41.2079C5.53528 41.4706 5.32155 41.6843 5.05884 41.6843Z" fill="black"/>
</g>
<defs>
<clipPath id="clip0_2_343">
<rect width="50" height="50" fill="white"/>
</clipPath>
</defs>
</svg>
