<svg width="50" height="50" viewBox="0 0 50 50" fill="none" xmlns="http://www.w3.org/2000/svg">
<path d="M20.3534 34.4827H8.62069C8.14458 34.4827 7.75862 34.0968 7.75862 33.6207V12.931L5.82758 14.8621C5.48878 15.1982 4.94224 15.1982 4.60344 14.8621L0.612065 10.8707C0.275877 10.5319 0.275877 9.98534 0.612065 9.64654L8.28448 1.97413C8.44551 1.81557 8.66194 1.7259 8.88793 1.72413H27.319C27.545 1.7259 27.7614 1.81557 27.9224 1.97413L35.5948 9.64654C35.931 9.98534 35.931 10.5319 35.5948 10.8707L31.6034 14.8621C31.2646 15.1982 30.7181 15.1982 30.3793 14.8621L28.4483 12.931V25L20.3534 34.4827Z" fill="#F29C1F"/>
<path d="M49.0776 45.8621L36.9483 48.1379C36.5225 48.2172 36.1034 47.9709 35.9655 47.5603L33.6207 40.5172L31.2758 47.5603C31.1379 47.9709 30.7188 48.2172 30.2931 48.1379L18.1638 45.8621C17.9264 45.8177 17.7186 45.6759 17.5908 45.471C17.4629 45.2662 17.4269 45.0172 17.4914 44.7845L20.3534 34.4827L21.5517 30.1724H45.6896L49.75 44.7845C49.8144 45.0172 49.7784 45.2662 49.6506 45.471C49.5228 45.6759 49.3149 45.8177 49.0776 45.8621Z" fill="#E64C3C"/>
<path d="M32.5 38.0172C32.1291 38.0169 31.7999 37.7795 31.6827 37.4276L28.7517 28.6345C28.6542 28.3419 28.7203 28.0195 28.9249 27.7888C29.1296 27.5581 29.4417 27.4541 29.7439 27.516C30.046 27.5778 30.2922 27.7962 30.3896 28.0888L33.3207 36.8819C33.4087 37.1453 33.3644 37.4351 33.2017 37.6602C33.039 37.8853 32.7778 38.0182 32.5 38.0172Z" fill="#802F34"/>
<path d="M23.2759 2.56896C23.2759 5.41608 20.9678 7.72413 18.1207 7.72413C15.2736 7.72413 12.9655 5.41608 12.9655 2.56896C12.9649 2.28554 12.9909 2.00269 13.0431 1.72413H23.1983C23.2505 2.00269 23.2765 2.28554 23.2759 2.56896Z" fill="#D25627"/>
<path d="M42.6724 43.1034C43.8627 43.1034 44.8276 42.1385 44.8276 40.9483C44.8276 39.758 43.8627 38.7931 42.6724 38.7931C41.4821 38.7931 40.5172 39.758 40.5172 40.9483C40.5172 42.1385 41.4821 43.1034 42.6724 43.1034Z" fill="#F9EAB0"/>
<path d="M22.8448 14.6552C24.0351 14.6552 25 13.6903 25 12.5C25 11.3097 24.0351 10.3448 22.8448 10.3448C21.6546 10.3448 20.6897 11.3097 20.6897 12.5C20.6897 13.6903 21.6546 14.6552 22.8448 14.6552Z" fill="#F9EAB0"/>
<path d="M45.6896 26.7241V30.1724H21.5517V26.7241C21.5546 25.7731 22.3248 25.0028 23.2759 25H43.9655C44.9165 25.0028 45.6868 25.7731 45.6896 26.7241Z" fill="#C03A2B"/>
</svg>
