<svg width="50" height="50" viewBox="0 0 50 50" fill="none" xmlns="http://www.w3.org/2000/svg">
<path d="M11.4945 17.1664H38.5051V19.9625H11.4945V17.1664Z" fill="#84879C"/>
<path d="M38.5055 20.3516H11.4945C11.3909 20.3516 11.2916 20.3104 11.2183 20.2372C11.1451 20.1639 11.1039 20.0645 11.1039 19.9609V17.1664C11.1039 17.0628 11.1451 16.9635 11.2183 16.8902C11.2916 16.8169 11.3909 16.7758 11.4945 16.7758H38.5055C38.6091 16.7758 38.7084 16.8169 38.7817 16.8902C38.8549 16.9635 38.8961 17.0628 38.8961 17.1664V19.9609C38.8961 20.0645 38.8549 20.1639 38.7817 20.2372C38.7084 20.3104 38.6091 20.3516 38.5055 20.3516ZM11.8852 19.5703H38.1148V17.557H11.8852V19.5703Z" fill="#2F3A5A"/>
<path d="M49.4727 32.8668L46.693 20.359C46.6677 20.2467 46.6051 20.1463 46.5153 20.0742C46.4255 20.0022 46.3139 19.9628 46.1988 19.9625H3.80118C3.68607 19.9628 3.57448 20.0022 3.48469 20.0742C3.39491 20.1463 3.33227 20.2467 3.30704 20.359L0.527348 32.8668C0.51121 32.9408 0.511828 33.0175 0.529158 33.0912C0.546487 33.1649 0.58009 33.2338 0.627503 33.2929C0.674917 33.352 0.734941 33.3997 0.803179 33.4325C0.871418 33.4654 0.946142 33.4826 1.02188 33.4828H48.9781C49.0539 33.4826 49.1286 33.4654 49.1968 33.4325C49.2651 33.3997 49.3251 33.352 49.3725 33.2929C49.4199 33.2338 49.4535 33.1649 49.4709 33.0912C49.4882 33.0175 49.4888 32.9408 49.4727 32.8668Z" fill="#D9E2E9"/>
<path d="M48.9766 33.4844H1.02345C0.947454 33.4844 0.872424 33.4674 0.803887 33.4346C0.735351 33.4017 0.675055 33.3539 0.627446 33.2947C0.579837 33.2355 0.546128 33.1663 0.528805 33.0923C0.511482 33.0183 0.510985 32.9414 0.527353 32.8672L0.773447 31.7617H46.9648C47.0408 31.7617 47.1159 31.7447 47.1844 31.7119C47.2529 31.6791 47.3132 31.6313 47.3608 31.572C47.4085 31.5128 47.4422 31.4437 47.4595 31.3697C47.4768 31.2957 47.4773 31.2187 47.4609 31.1445L44.9727 19.9609H46.1992C46.3144 19.9614 46.4259 20.0011 46.5154 20.0735C46.6049 20.146 46.667 20.2468 46.6914 20.3594L49.4727 32.8672C49.489 32.9414 49.4885 33.0183 49.4712 33.0923C49.4539 33.1663 49.4202 33.2355 49.3726 33.2947C49.325 33.3539 49.2647 33.4017 49.1961 33.4346C49.1276 33.4674 49.0526 33.4844 48.9766 33.4844Z" fill="#C1CDD3"/>
<path d="M48.9785 33.8734H1.02149C0.887293 33.8731 0.754871 33.8428 0.63395 33.7846C0.513028 33.7264 0.40668 33.6418 0.322716 33.5371C0.238751 33.4325 0.179304 33.3103 0.148741 33.1796C0.118178 33.049 0.117275 32.9131 0.146098 32.782L2.92539 20.2734C2.9687 20.0737 3.07927 19.8949 3.23862 19.7669C3.39796 19.6389 3.59641 19.5695 3.80079 19.5703H46.1992C46.4036 19.5695 46.6021 19.6389 46.7614 19.7669C46.9207 19.8949 47.0313 20.0737 47.0746 20.2734L49.8539 32.7812C49.8827 32.9123 49.8818 33.0482 49.8513 33.1788C49.8207 33.3095 49.7613 33.4317 49.6773 33.5364C49.5933 33.641 49.487 33.7256 49.3661 33.7838C49.2451 33.842 49.1127 33.8723 48.9785 33.8727V33.8734ZM3.80079 20.3516C3.7746 20.3519 3.7493 20.3611 3.72891 20.3775C3.70852 20.3939 3.69422 20.4167 3.68829 20.4422L0.908989 32.9516C0.905548 32.9684 0.905853 32.9858 0.909881 33.0025C0.913909 33.0192 0.921561 33.0348 0.932296 33.0482C0.94303 33.0616 0.956585 33.0725 0.971999 33.0801C0.987412 33.0877 1.00431 33.0918 1.02149 33.0922H48.9785C48.9957 33.0918 49.0126 33.0877 49.028 33.0801C49.0434 33.0725 49.057 33.0616 49.0677 33.0482C49.0784 33.0348 49.0861 33.0192 49.0901 33.0025C49.0942 32.9858 49.0945 32.9684 49.091 32.9516L46.3117 20.4437C46.3058 20.4182 46.2915 20.3955 46.2711 20.379C46.2507 20.3626 46.2254 20.3535 46.1992 20.3531L3.80079 20.3516Z" fill="#2F3A5A"/>
<path d="M16.2895 30.4809H4.54102L6.07539 22.4004H16.9426L16.2895 30.4809Z" fill="#3DBCE9"/>
<path d="M16.9414 22.4023L16.8594 23.4258H7.1133L5.77345 30.4805H4.54298L6.07423 22.4023H16.9414Z" fill="#81DAFC"/>
<path d="M16.2891 30.8715H4.54101C4.48358 30.8715 4.42686 30.8588 4.37489 30.8343C4.32292 30.8098 4.27698 30.7742 4.24035 30.73C4.20372 30.6857 4.1773 30.634 4.16297 30.5784C4.14863 30.5227 4.14674 30.4646 4.15742 30.4082L5.6918 22.3277C5.70873 22.2383 5.75636 22.1576 5.82647 22.0995C5.89657 22.0415 5.98476 22.0097 6.07578 22.0098H16.9426C16.9966 22.0096 17.0502 22.0206 17.0997 22.0422C17.1493 22.0638 17.1939 22.0954 17.2306 22.1351C17.2673 22.1748 17.2954 22.2217 17.3131 22.2728C17.3307 22.3239 17.3376 22.3781 17.3332 22.432L16.6797 30.5125C16.6717 30.6105 16.6271 30.7019 16.5547 30.7685C16.4823 30.835 16.3874 30.8718 16.2891 30.8715ZM5.0125 30.0902H15.9289L16.5191 22.791H6.39922L5.0125 30.0902Z" fill="#2F3A5A"/>
<path d="M34.1313 25.1277H31.3453L31.1895 22.6148H33.9074L34.1313 25.1277Z" fill="#84879C"/>
<path d="M34.1313 25.5184H31.3449C31.2454 25.5186 31.1495 25.4807 31.0769 25.4126C31.0043 25.3445 30.9605 25.2513 30.9543 25.152L30.7981 22.6391C30.7947 22.5858 30.8024 22.5324 30.8205 22.4821C30.8387 22.4319 30.8669 22.3859 30.9035 22.3471C30.9401 22.3082 30.9843 22.2772 31.0334 22.2561C31.0824 22.235 31.1353 22.2241 31.1887 22.2242H33.9063C34.0041 22.2238 34.0985 22.2602 34.1709 22.3261C34.2432 22.392 34.2882 22.4826 34.2969 22.5801L34.5207 25.093C34.5256 25.1471 34.519 25.2017 34.5016 25.2532C34.4841 25.3046 34.4561 25.3519 34.4194 25.3919C34.3826 25.432 34.3379 25.4639 34.2881 25.4857C34.2383 25.5075 34.1845 25.5186 34.1301 25.5184H34.1313ZM31.7125 24.7371H33.7047L33.5504 23.0055H31.6051L31.7125 24.7371Z" fill="#2F3A5A"/>
<path d="M39.2867 25.1277H36.5008L36.2184 22.6148H38.9363L39.2867 25.1277Z" fill="#84879C"/>
<path d="M39.2867 25.5184H36.5004C36.4043 25.5184 36.3117 25.483 36.24 25.419C36.1684 25.3551 36.1229 25.2669 36.1121 25.1715L35.8301 22.6586C35.8239 22.6039 35.8294 22.5486 35.8461 22.4962C35.8628 22.4438 35.8904 22.3955 35.927 22.3545C35.9637 22.3135 36.0086 22.2807 36.0588 22.2583C36.109 22.2358 36.1634 22.2242 36.2184 22.2242H38.9363C39.0306 22.2243 39.1216 22.2584 39.1927 22.3202C39.2637 22.3821 39.31 22.4676 39.323 22.5609L39.6746 25.0738C39.6823 25.1291 39.6781 25.1854 39.6622 25.239C39.6463 25.2925 39.6191 25.342 39.5824 25.3841C39.5458 25.4262 39.5005 25.46 39.4497 25.4832C39.3989 25.5063 39.3437 25.5183 39.2879 25.5184H39.2867ZM36.8496 24.7371H38.8379L38.5965 23.0055H36.6551L36.8496 24.7371Z" fill="#2F3A5A"/>
<path d="M44.4422 25.1277H41.6563L41.2473 22.6148H43.9652L44.4422 25.1277Z" fill="#84879C"/>
<path d="M44.4422 25.5184H41.6563C41.5635 25.5185 41.4737 25.4855 41.403 25.4255C41.3323 25.3654 41.2853 25.2822 41.2703 25.1906L40.8617 22.6777C40.8526 22.6218 40.8558 22.5646 40.871 22.51C40.8862 22.4554 40.9131 22.4048 40.9498 22.3617C40.9865 22.3185 41.0321 22.2839 41.0836 22.2602C41.135 22.2364 41.191 22.2242 41.2477 22.2242H43.9652C44.0562 22.2243 44.1443 22.2561 44.2143 22.3141C44.2843 22.3722 44.3319 22.4528 44.3488 22.5422L44.8262 25.0551C44.8369 25.1115 44.835 25.1697 44.8206 25.2253C44.8062 25.281 44.7798 25.3328 44.7431 25.377C44.7064 25.4213 44.6605 25.4569 44.6084 25.4813C44.5564 25.5057 44.4997 25.5184 44.4422 25.5184ZM41.9883 24.7371H43.9703L43.6418 23.0055H41.707L41.9883 24.7371Z" fill="#2F3A5A"/>
<path d="M34.5863 30.2316H31.6613L31.4899 27.4652H34.3399L34.5863 30.2316Z" fill="#84879C"/>
<path d="M34.5863 30.6223H31.6613C31.5618 30.6225 31.4659 30.5847 31.3933 30.5166C31.3207 30.4485 31.2769 30.3552 31.2707 30.2559L31.0992 27.4895C31.0959 27.4362 31.1036 27.3827 31.1217 27.3325C31.1399 27.2823 31.1681 27.2363 31.2047 27.1975C31.2413 27.1586 31.2855 27.1276 31.3345 27.1065C31.3836 27.0854 31.4364 27.0745 31.4899 27.0746H34.3414C34.4393 27.0742 34.5337 27.1106 34.606 27.1765C34.6784 27.2424 34.7233 27.333 34.732 27.4305L34.9785 30.1969C34.9834 30.251 34.9769 30.3056 34.9594 30.3571C34.9419 30.4085 34.9139 30.4558 34.8772 30.4959C34.8404 30.5359 34.7957 30.5678 34.7459 30.5896C34.6961 30.6114 34.6423 30.6225 34.5879 30.6223H34.5863ZM32.0285 29.841H34.1594L33.9844 27.8559H31.9055L32.0285 29.841Z" fill="#2F3A5A"/>
<path d="M39.9988 30.2316H37.0738L36.7633 27.4652H39.6129L39.9988 30.2316Z" fill="#84879C"/>
<path d="M40 30.6223H37.0738C36.9777 30.6223 36.885 30.5869 36.8134 30.5228C36.7417 30.4587 36.6962 30.3705 36.6856 30.275L36.373 27.5086C36.3669 27.454 36.3724 27.3987 36.3892 27.3463C36.4059 27.294 36.4335 27.2457 36.4701 27.2048C36.5068 27.1638 36.5517 27.131 36.6018 27.1086C36.652 27.0862 36.7064 27.0746 36.7613 27.0746H39.6129C39.7071 27.0746 39.7982 27.1088 39.8692 27.1706C39.9403 27.2325 39.9866 27.318 39.9996 27.4113L40.3859 30.1773C40.3937 30.2327 40.3895 30.2891 40.3736 30.3427C40.3577 30.3963 40.3305 30.4459 40.2938 30.488C40.2571 30.5302 40.2118 30.564 40.1609 30.5872C40.11 30.6103 40.0547 30.6223 39.9988 30.6223H40ZM37.4242 29.841H39.5512L39.2742 27.8559H37.2L37.4242 29.841Z" fill="#2F3A5A"/>
<path d="M45.4113 30.2316H42.4863L42.0363 27.4652H44.8863L45.4113 30.2316Z" fill="#84879C"/>
<path d="M45.4114 30.6223H42.4868C42.3939 30.6224 42.3041 30.5894 42.2334 30.5292C42.1627 30.4691 42.1157 30.3858 42.1008 30.2941L41.6508 27.5281C41.6417 27.4722 41.6448 27.415 41.66 27.3605C41.6752 27.306 41.7021 27.2554 41.7387 27.2122C41.7754 27.1691 41.821 27.1344 41.8724 27.1107C41.9238 27.0869 41.9797 27.0746 42.0364 27.0746H44.8879C44.979 27.0746 45.0671 27.1063 45.1372 27.1644C45.2073 27.2224 45.255 27.3031 45.2719 27.3926L45.7965 30.1586C45.8073 30.2151 45.8054 30.2732 45.7911 30.3289C45.7768 30.3845 45.7504 30.4364 45.7138 30.4806C45.6771 30.5249 45.6312 30.5606 45.5792 30.5851C45.5272 30.6095 45.4704 30.6222 45.4129 30.6223H45.4114ZM42.8188 29.841H44.9395L44.5629 27.8559H42.4957L42.8188 29.841Z" fill="#2F3A5A"/>
<path d="M40.9047 33.4828V35.1625C40.9048 35.3922 40.9961 35.6124 41.1585 35.7748C41.3208 35.9371 41.5411 36.0284 41.7707 36.0285H45.9055C46.1351 36.0284 46.3553 35.9371 46.5177 35.7748C46.6801 35.6124 46.7714 35.3922 46.7715 35.1625V33.4828H40.9047Z" fill="#84879C"/>
<path d="M45.9055 36.4203H41.7711C41.4379 36.42 41.1184 36.2875 40.8827 36.0519C40.6471 35.8163 40.5145 35.4969 40.5141 35.1637V33.484C40.5141 33.3804 40.5552 33.281 40.6285 33.2078C40.7017 33.1345 40.8011 33.0934 40.9047 33.0934H46.7715C46.8751 33.0934 46.9744 33.1345 47.0477 33.2078C47.121 33.281 47.1621 33.3804 47.1621 33.484V35.1637C47.1617 35.4968 47.0292 35.8162 46.7936 36.0518C46.558 36.2874 46.2386 36.4199 45.9055 36.4203ZM41.2961 33.8734V35.1625C41.2963 35.2886 41.3465 35.4094 41.4357 35.4986C41.5249 35.5877 41.6458 35.6378 41.7719 35.6379H45.9063C46.0323 35.6378 46.1532 35.5877 46.2423 35.4985C46.3314 35.4094 46.3815 35.2885 46.3816 35.1625V33.8734H41.2961Z" fill="#2F3A5A"/>
<path d="M3.22852 33.4828V35.1625C3.22863 35.3922 3.3199 35.6124 3.48229 35.7748C3.64467 35.9371 3.86489 36.0284 4.09454 36.0285H8.2293C8.45895 36.0284 8.67917 35.9371 8.84155 35.7748C9.00394 35.6124 9.09521 35.3922 9.09532 35.1625V33.4828H3.22852Z" fill="#84879C"/>
<path d="M8.22891 36.4203H4.09453C3.76138 36.4199 3.44199 36.2874 3.20641 36.0518C2.97083 35.8162 2.8383 35.4968 2.83789 35.1637V33.484C2.83789 33.3804 2.87905 33.281 2.9523 33.2078C3.02556 33.1345 3.12492 33.0934 3.22852 33.0934H9.09531C9.19891 33.0934 9.29827 33.1345 9.37153 33.2078C9.44478 33.281 9.48594 33.3804 9.48594 33.484V35.1637C9.48552 35.4969 9.35294 35.8163 9.11728 36.0519C8.88162 36.2875 8.56213 36.42 8.22891 36.4203ZM3.61953 33.8734V35.1625C3.61963 35.2885 3.66975 35.4094 3.75888 35.4985C3.84801 35.5877 3.96887 35.6378 4.09492 35.6379H8.22891C8.35499 35.6378 8.47589 35.5877 8.56508 35.4986C8.65428 35.4094 8.70448 35.2886 8.70469 35.1625V33.8734H3.61953Z" fill="#2F3A5A"/>
<path d="M45.6551 13.9703H4.34493C3.92111 13.9703 3.51464 14.1387 3.21494 14.4384C2.91525 14.7381 2.74689 15.1445 2.74689 15.5684C2.74689 15.9922 2.91525 16.3987 3.21494 16.6984C3.51464 16.998 3.92111 17.1664 4.34493 17.1664H45.6551C46.0789 17.1664 46.4854 16.998 46.7851 16.6984C47.0848 16.3987 47.2531 15.9922 47.2531 15.5684C47.2531 15.1445 47.0848 14.7381 46.7851 14.4384C46.4854 14.1387 46.0789 13.9703 45.6551 13.9703Z" fill="#D9E2E9"/>
<path d="M46.4688 14.1953C46.472 14.2134 46.4733 14.2317 46.4727 14.25C46.4727 14.4598 46.4314 14.6676 46.3511 14.8615C46.2709 15.0553 46.1532 15.2315 46.0048 15.3798C45.8565 15.5282 45.6803 15.6459 45.4865 15.7261C45.2926 15.8064 45.0848 15.8477 44.875 15.8477H3.5625C3.276 15.8482 2.99488 15.7698 2.75 15.6211C2.76288 16.0354 2.93638 16.4284 3.2338 16.7171C3.53123 17.0058 3.92927 17.1675 4.34375 17.168H45.6562C46.0066 17.168 46.3472 17.053 46.6256 16.8404C46.9041 16.6279 47.105 16.3297 47.1974 15.9918C47.2897 15.6539 47.2684 15.295 47.1368 14.9704C47.0051 14.6458 46.7704 14.3734 46.4688 14.1953Z" fill="#C1CDD3"/>
<path d="M45.6551 17.557H4.34493C3.81751 17.557 3.31168 17.3475 2.93873 16.9746C2.56578 16.6016 2.35626 16.0958 2.35626 15.5684C2.35626 15.0409 2.56578 14.5351 2.93873 14.1622C3.31168 13.7892 3.81751 13.5797 4.34493 13.5797H45.6551C46.1825 13.5797 46.6883 13.7892 47.0613 14.1622C47.4342 14.5351 47.6438 15.0409 47.6438 15.5684C47.6438 16.0958 47.4342 16.6016 47.0613 16.9746C46.6883 17.3475 46.1825 17.557 45.6551 17.557ZM4.34493 14.3609C4.02471 14.3609 3.71759 14.4882 3.49116 14.7146C3.26472 14.941 3.13751 15.2481 3.13751 15.5684C3.13751 15.8886 3.26472 16.1957 3.49116 16.4221C3.71759 16.6486 4.02471 16.7758 4.34493 16.7758H45.6551C45.9753 16.7758 46.2824 16.6486 46.5089 16.4221C46.7353 16.1957 46.8625 15.8886 46.8625 15.5684C46.8625 15.2481 46.7353 14.941 46.5089 14.7146C46.2824 14.4882 45.9753 14.3609 45.6551 14.3609H4.34493Z" fill="#2F3A5A"/>
</svg>
