<svg width="31" height="49" viewBox="0 0 31 49" fill="none" xmlns="http://www.w3.org/2000/svg">
<path d="M29.5349 7.63794H20.4597V15.3966H29.5349V7.63794Z" fill="white"/>
<path d="M15.6196 37.8966C11.2828 37.8966 7.75439 33.3717 7.75439 27.8104C7.75439 22.249 11.2828 17.7242 15.6196 17.7242C19.9563 17.7242 23.4848 22.249 23.4848 27.8104C23.4848 33.3717 19.9563 37.8966 15.6196 37.8966Z" fill="white"/>
<path d="M30.1399 43.2019V7.63794L28.7974 0.655182H2.44176L1.09923 7.54251V43.2019L0.494217 45.5295V48.7586H30.7449V45.5295L30.1399 43.2019ZM2.30926 39.4483V16.1724H28.9299V39.4483H26.5098V41H28.9299V42.5517H2.30926V41H25.2998V39.4483H2.30926ZM8.96442 8.4138V14.6207H2.30926V8.4138H8.96442ZM28.9299 14.6207H10.1744V8.4138H28.9299V14.6207ZM27.8524 2.20691L28.7599 6.86208H2.47927L3.38679 2.20691H27.8524ZM29.5349 47.2069H1.70425V45.7809L2.14046 44.1035H29.0993L29.5349 45.7809V47.2069Z" fill="black"/>
<path d="M15.6196 20.8276C12.6175 20.8276 10.1744 23.9598 10.1744 27.8104C10.1744 31.661 12.6175 34.7931 15.6196 34.7931C17.4352 34.7931 19.1268 33.6092 20.1336 31.6897H23.4848V30.1379H20.4597V25.4828H23.4848V23.9311H20.1336C19.1268 22.0116 17.4352 20.8276 15.6196 20.8276ZM15.6196 33.2414C13.2842 33.2414 11.3845 30.8044 11.3845 27.8104C11.3845 24.8163 13.2842 22.3793 15.6196 22.3793C17.1037 22.3793 18.4861 23.3918 19.2497 25.0219V30.5996C18.4861 32.2289 17.1037 33.2414 15.6196 33.2414Z" fill="black"/>
<path d="M12.5945 12.2931H13.9159C14.1663 13.1939 14.8319 13.8448 15.6196 13.8448C16.4073 13.8448 17.0728 13.1939 17.3233 12.2931H18.6447V10.7414H17.3233C17.0728 9.84062 16.4073 9.18967 15.6196 9.18967C14.8319 9.18967 14.1663 9.84062 13.9159 10.7414H12.5945V12.2931ZM15.6196 10.7414C15.9529 10.7414 16.2246 11.089 16.2246 11.5173C16.2246 11.9455 15.9529 12.2931 15.6196 12.2931C15.2862 12.2931 15.0146 11.9455 15.0146 11.5173C15.0146 11.089 15.2862 10.7414 15.6196 10.7414Z" fill="black"/>
<path d="M22.8798 10.7414H21.6697V12.2931H22.8798V10.7414Z" fill="black"/>
<path d="M25.2998 10.7414H24.0898V12.2931H25.2998V10.7414Z" fill="black"/>
<path d="M27.7199 10.7414H26.5099V12.2931H27.7199V10.7414Z" fill="black"/>
<path d="M11.9895 3.75864H4.72932V5.31036H11.9895V3.75864Z" fill="black"/>
<path d="M14.4096 3.75864H13.1995V5.31036H14.4096V3.75864Z" fill="black"/>
<path d="M7.75439 10.7414H3.51929V12.2931H7.75439V10.7414Z" fill="black"/>
</svg>
