<svg width="50" height="50" viewBox="0 0 50 50" fill="none" xmlns="http://www.w3.org/2000/svg">
<g clip-path="url(#clip0_2_318)">
<path d="M43.3745 26.5027L41.3033 24.4321L43.7659 21.9706C44.3378 21.399 45.2646 21.399 45.8364 21.9707C46.4085 22.5426 46.4085 23.47 45.8363 24.042L43.3745 26.5027Z" fill="#B5ADB6"/>
<path d="M14.6447 34.6865L12.5741 36.7577L10.1126 34.2951C9.54102 33.7232 9.54102 32.7964 10.1127 32.2246C10.6846 31.6525 11.6121 31.6525 12.184 32.2247L14.6447 34.6865Z" fill="#B5ADB6"/>
<path d="M35.4556 40.2505H27.4053V37.4389C27.4053 37.0104 27.7526 36.6631 28.1811 36.6631H34.6798C35.1083 36.6631 35.4556 37.0104 35.4556 37.4389V40.2505Z" fill="#B5ADB6"/>
<path d="M49.2341 41.0292C47.6529 35.6024 46.0718 30.1756 44.4906 24.7488C44.1821 23.6901 43.1756 22.9926 42.0755 23.0729C36.7656 23.4605 29.7297 24.7157 22.3048 28.3165C19.4174 29.7168 16.9117 31.2581 14.7706 32.7772C10.545 35.9674 7.01123 39.982 4.3834 44.5777L3.64219 45.8741L2.66113 47.339L43.976 45.8741L44.5404 44.6665C45.2122 43.2292 46.6557 42.3107 48.2427 42.3107C48.913 42.3107 49.4027 41.6777 49.2341 41.0292ZM41.0182 39.0523L26.5403 40.004C24.5107 40.1374 22.7912 38.5277 22.7912 36.4946V36.4945C22.7912 35.2164 23.4837 34.0382 24.6021 33.4189C26.2437 32.5102 28.1039 31.5979 30.1799 30.7566C33.2758 29.5022 36.1622 28.6849 38.6773 28.1445C39.5014 27.9675 40.3171 28.475 40.5163 29.2938L42.4243 37.1379C42.652 38.0741 41.9799 38.9892 41.0182 39.0523Z" fill="#FEE97D"/>
<path d="M49.2342 41.0292C47.653 35.6024 46.0719 30.1756 44.4907 24.7488C44.1831 23.693 43.1807 22.9924 42.0838 23.0723C41.8932 23.0861 41.6997 23.1015 41.5046 23.1177C41.525 23.1722 41.5445 23.2272 41.561 23.284C43.1422 28.7107 44.7233 34.1376 46.3045 39.5644C46.4729 40.2121 45.9846 40.8442 45.3156 40.8458C43.7603 40.8495 42.3253 41.6729 41.6667 43.0819C41.2882 43.8917 40.4752 44.4091 39.5813 44.4091H4.48262C4.45 44.4655 4.41582 44.521 4.3834 44.5776L3.64219 45.8739L2.66113 47.3388L43.976 45.8739L44.5963 44.5468C45.2549 43.1378 46.6898 42.3144 48.2452 42.3106C48.9143 42.3091 49.4024 41.677 49.2342 41.0292Z" fill="#FEDF30"/>
<path d="M44.2339 49.2676H0.732422C0.732422 47.3934 2.25176 45.874 4.12598 45.874H44.234C45.1711 45.874 45.9308 46.6337 45.9308 47.5708C45.9307 48.5079 45.171 49.2676 44.2339 49.2676Z" fill="#B5ADB6"/>
<path d="M44.2339 45.874H41.3042C42.2413 45.874 43.001 46.6337 43.001 47.5708C43.001 48.5079 42.2413 49.2676 41.3042 49.2676H44.2339C45.171 49.2676 45.9307 48.5079 45.9307 47.5708C45.9307 46.6337 45.171 45.874 44.2339 45.874Z" fill="#A79BA7"/>
<path d="M25.835 39.9797C25.8349 39.9797 25.8347 39.9796 25.8346 39.9796C24.1276 39.7494 22.7912 38.287 22.7912 36.4947V36.4946C22.7912 35.2165 23.4837 34.0383 24.6022 33.419C26.2438 32.5103 28.1039 31.5979 30.1799 30.7566C33.2758 29.5021 36.1623 28.6849 38.6774 28.1446C39.076 28.059 39.4718 28.1347 39.7977 28.327C39.798 28.3269 39.7985 28.3268 39.7989 28.3267C38.5744 26.7208 37.5596 26.5406 37.0934 26.5295C36.857 26.5238 36.4875 26.5773 35.7478 26.6798C33.7351 26.9584 32.6979 27.0843 27.2502 29.2918C25.1742 30.1331 23.3141 31.0454 21.6725 31.9542C20.5539 32.5733 19.8615 33.7517 19.8615 35.0298C19.9678 35.6536 20.2269 36.6127 20.9216 37.5456C22.6042 39.8051 25.3907 39.9618 25.835 39.9797Z" fill="#FEDF30"/>
<path d="M50 16.0029C50 14.6455 49.4715 13.37 48.5124 12.4121C47.5539 11.4523 46.2784 10.9238 44.921 10.9238H37.0138C34.4059 10.9238 32.2843 8.80215 32.2843 6.19434C32.2843 4.93086 32.7762 3.74307 33.6694 2.8499C34.5624 1.95674 35.7502 1.46484 37.0137 1.46484H49.2676C49.6721 1.46484 50 1.13691 50 0.732422C50 0.32793 49.6721 0 49.2676 0H37.0137C35.3589 0 33.8033 0.644238 32.6335 1.81416C31.4637 2.98398 30.8193 4.53955 30.8193 6.19434C30.8193 9.60986 33.5981 12.3887 37.0137 12.3887H44.9209C45.8867 12.3887 46.7941 12.7646 47.4765 13.4479C48.1592 14.1298 48.5352 15.0371 48.5352 16.0029C48.5352 16.8464 48.2385 17.6674 47.6995 18.3148L45.5213 20.9342C44.7514 20.6681 43.8622 20.8393 43.2477 21.4528L42.3631 22.3374C40.3787 22.2964 38.1542 22.7222 36.2282 23.0627C35.8299 23.1331 35.5641 23.5132 35.6346 23.9114C35.705 24.3098 36.0851 24.5754 36.4833 24.5051C38.3331 24.1779 40.2325 23.9418 42.1287 23.8034C42.8788 23.7481 43.5772 24.2324 43.7874 24.9538C43.9658 25.5661 48.3799 40.5951 48.527 41.2209C48.5756 41.4278 48.4549 41.5783 48.2426 41.5783C46.0174 41.5783 44.2346 43.1076 43.5098 45.1416H12.2235C11.819 45.1416 11.4911 45.4694 11.4911 45.874C11.4911 46.2786 11.819 46.6064 12.2235 46.6064H44.234C44.7657 46.6064 45.1983 47.0391 45.1983 47.5708C45.1983 48.1025 44.7656 48.5352 44.2339 48.5352H1.56729C1.88613 47.4228 2.9125 46.6064 4.12588 46.6064H9.29375C9.69824 46.6064 10.0262 46.2786 10.0262 45.874C10.0262 45.4694 9.69824 45.1416 9.29375 45.1416H4.90469C11.0045 34.2434 21.6921 27.8538 33.6916 25.0746C34.0856 24.9833 34.3312 24.5899 34.2398 24.1958C34.1486 23.8018 33.7551 23.5562 33.361 23.6476C26.3657 25.2686 19.3383 28.2424 13.6859 32.6911L12.7024 31.7077C11.8592 30.853 10.4408 30.8603 9.59443 31.7067C8.75156 32.5497 8.74209 33.969 9.59443 34.8129L10.3807 35.5991C7.50303 38.4271 5.09727 41.6851 3.15 45.2593C1.34463 45.6989 0 47.3287 0 49.2676C0 49.6722 0.32793 50 0.732422 50H44.2339C45.5733 50 46.6631 48.9103 46.6631 47.5708C46.6631 46.521 45.9937 45.6248 45.0592 45.2861C45.5731 43.9606 46.8075 43.0431 48.2426 43.0431C49.364 43.0431 50.2252 41.9297 49.9429 40.8448C49.9411 40.8379 49.9392 40.831 49.9372 40.8242L45.459 25.454L46.3538 24.5599C47.0725 23.8467 47.1979 22.6953 46.666 21.8487L48.8257 19.2518C49.5829 18.3418 50 17.1881 50 16.0029ZM10.6303 32.7425C10.7689 32.6037 10.953 32.5273 11.1485 32.5273C11.3438 32.5273 11.5271 32.6034 11.6657 32.7426L12.546 33.6229C12.1725 33.9396 11.8056 34.2626 11.445 34.5918L10.6302 33.777C10.345 33.4918 10.345 33.0277 10.6303 32.7425ZM45.3183 23.5239L44.929 23.9129C44.6853 23.4772 44.3395 23.1118 43.9297 22.8425L44.2831 22.4891C44.5688 22.2039 45.0331 22.2037 45.3181 22.4887C45.4568 22.6274 45.5332 22.8111 45.5332 23.006C45.5332 23.2013 45.4568 23.3854 45.3183 23.5239ZM24.2475 32.7782C22.8975 33.5256 22.0588 34.9496 22.0588 36.4946C22.0588 37.6652 22.5489 38.7957 23.4036 39.596C24.1913 40.3336 25.2384 40.744 26.3124 40.7439C26.4042 40.7439 26.4963 40.741 26.5884 40.7349L41.0663 39.7832C41.7412 39.7389 42.3578 39.4008 42.7579 38.8557C43.1579 38.3108 43.2957 37.6216 43.136 36.9648L41.228 29.1208C40.9334 27.9095 39.7453 27.1664 38.5236 27.4285C35.5848 28.06 32.6851 28.9514 29.9049 30.0779C27.9744 30.8602 26.071 31.7687 24.2475 32.7782ZM34.7227 38.7322L28.1377 39.1651V37.4385C28.1377 37.4152 28.1574 37.3955 28.1807 37.3955H34.6797C34.7034 37.3955 34.7227 37.4147 34.7227 37.4385V38.7322ZM38.8312 28.8606C38.891 28.8478 38.9506 28.8416 39.0092 28.8416C39.3816 28.8416 39.7133 29.0915 39.8046 29.4669L41.7126 37.3109C41.7707 37.5498 41.7226 37.7905 41.577 37.9887C41.4313 38.1871 41.2158 38.3053 40.9701 38.3215L36.1875 38.6358V37.4385C36.1875 36.607 35.5111 35.9307 34.6797 35.9307H28.1807C27.3492 35.9307 26.6729 36.6071 26.6729 37.4385V39.2614L26.4922 39.2733C25.7151 39.3239 24.9734 39.0593 24.4048 38.5268C23.8365 37.9946 23.5235 37.2729 23.5235 36.4946C23.5235 35.4822 24.0728 34.5492 24.9568 34.0598C26.7291 33.0786 28.5789 32.1957 30.455 31.4354C33.1567 30.3406 35.975 29.4742 38.8312 28.8606Z" fill="black"/>
</g>
<defs>
<clipPath id="clip0_2_318">
<rect width="50" height="50" fill="white"/>
</clipPath>
</defs>
</svg>
